<svg xmlns="http://www.w3.org/2000/svg" xmlns:xlink="http://www.w3.org/1999/xlink" id="body_1" preserveAspectRatio="xMinYMin meet" viewBox="0 0 793 1123"><defs><clipPath id="1"><path id="" clip-rule="evenodd" transform="matrix(1 0 0 1 0 0)" d="M0 842L0 0L0 0L595 0L595 0L595 842L595 842L0 842z" /></clipPath><clipPath id="2"><path id="" clip-rule="evenodd" transform="matrix(1 0 0 1 0 0)" d="M18 861L614 861L614 861L614 18L614 18L18 18z" /></clipPath><clipPath id="3"><path id="" clip-rule="evenodd" transform="matrix(1 0 0 1 0 0)" d="M18 861L614 861L614 861L614 18L614 18L18 18z" /></clipPath><clipPath id="4"><path id="" clip-rule="evenodd" transform="matrix(1 0 0 1 0 0)" d="M18 861L614 861L614 861L614 18L614 18L18 18z" /></clipPath><clipPath id="5"><path id="" clip-rule="evenodd" transform="matrix(1 0 0 1 0 0)" d="M18 861L614 861L614 861L614 18L614 18L18 18z" /></clipPath><clipPath id="6"><path id="" clip-rule="evenodd" transform="matrix(1 0 0 1 0 0)" d="M18 861L614 861L614 861L614 18L614 18L18 18z" /></clipPath><clipPath id="7"><path id="" clip-rule="evenodd" transform="matrix(1 0 0 1 0 0)" d="M18 861L614 861L614 861L614 18L614 18L18 18z" /></clipPath><clipPath id="8"><path id="" clip-rule="evenodd" transform="matrix(1 0 0 1 0 0)" d="M18 861L614 861L614 861L614 18L614 18L18 18z" /></clipPath><clipPath id="9"><path id="" clip-rule="evenodd" transform="matrix(1 0 0 1 0 0)" d="M18 861L614 861L614 861L614 18L614 18L18 18z" /></clipPath><clipPath id="10"><path id="" clip-rule="evenodd" transform="matrix(1 0 0 1 0 0)" d="M18 861L614 861L614 861L614 18L614 18L18 18z" /></clipPath><clipPath id="11"><path id="" clip-rule="evenodd" transform="matrix(1 0 0 1 0 0)" d="M18 861L614 861L614 861L614 18L614 18L18 18z" /></clipPath><clipPath id="12"><path id="" clip-rule="evenodd" transform="matrix(1 0 0 1 0 0)" d="M18 861L614 861L614 861L614 18L614 18L18 18z" /></clipPath><clipPath id="13"><path id="" clip-rule="evenodd" transform="matrix(1 0 0 1 0 0)" d="M18 861L614 861L614 861L614 18L614 18L18 18z" /></clipPath><clipPath id="14"><path id="" clip-rule="evenodd" transform="matrix(1 0 0 1 0 0)" d="M18 861L614 861L614 861L614 18L614 18L18 18z" /></clipPath></defs><g transform="matrix(1.333333 0 0 1.333333 0 0)"><g clip-path="url(#1)"><path id="173" transform="matrix(1 0 0 -1 0 842)" d="M54 708.08L540.96 708.08L540.96 722.72L54 722.72z" stroke="none" fill="#D3D3D3" fill-rule="nonzero" /><g clip-path="url(#2)"></g><g clip-path="url(#3)"></g><path id="779" transform="matrix(1 0 0 -1 0 842)" d="M54 567.68L540.96 567.68L540.96 582.32L54 582.32z" stroke="none" fill="#D2D2D2" fill-rule="nonzero" /><g clip-path="url(#4)"></g><g clip-path="url(#5)"></g><path id="1286" transform="matrix(1 0 0 -1 0 842)" d="M54 427.28L540.96 427.28L540.96 441.92L54 441.92z" stroke="none" fill="#D2D2D2" fill-rule="nonzero" /><g clip-path="url(#6)"></g><path id="2108" transform="matrix(1 0 0 -1 0 842)" d="M54 224.48L540.96 224.48L540.96 239.12L54 239.12z" stroke="none" fill="#D2D2D2" fill-rule="nonzero" /><g clip-path="url(#7)"></g><g clip-path="url(#8)"></g><path id="2225" transform="matrix(1 0 0 -1 0 842)" d="M54 177.68L540.96 177.68L540.96 192.32L54 192.32z" stroke="none" fill="#D2D2D2" fill-rule="nonzero" /><g clip-path="url(#9)"></g><g clip-path="url(#10)"></g><g clip-path="url(#11)"></g><g clip-path="url(#12)"></g><g clip-path="url(#13)"></g><g clip-path="url(#14)"></g></g></g></svg>