<svg xmlns="http://www.w3.org/2000/svg" xmlns:xlink="http://www.w3.org/1999/xlink" id="body_1" preserveAspectRatio="xMinYMin meet" viewBox="0 0 793 1123"><defs><clipPath id="1"><path id="" clip-rule="evenodd" transform="matrix(1 0 0 1 0 0)" d="M0 842L0 0L0 0L595 0L595 0L595 842L595 842L0 842z" /></clipPath><clipPath id="2"><path id="" clip-rule="evenodd" transform="matrix(1 0 0 1 0 0)" d="M0 842L595 842L595 842L595 0L595 0L0 0z" /></clipPath><clipPath id="3"><path id="" clip-rule="evenodd" transform="matrix(1 0 0 1 0 0)" d="M18 842L595 842L595 842L595 18L595 18L18 18z" /></clipPath><clipPath id="4"><path id="" clip-rule="evenodd" transform="matrix(1 0 0 1 0 0)" d="M18 842L595 842L595 842L595 18L595 18L18 18z" /></clipPath><clipPath id="5"><path id="" clip-rule="evenodd" transform="matrix(1 0 0 1 0 0)" d="M0 842L595 842L595 842L595 0L595 0L0 0z" /></clipPath><clipPath id="6"><path id="" clip-rule="evenodd" transform="matrix(1 0 0 1 0 0)" d="M18 842L595 842L595 842L595 18L595 18L18 18z" /></clipPath><clipPath id="7"><path id="" clip-rule="evenodd" transform="matrix(1 0 0 1 0 0)" d="M18 842L595 842L595 842L595 18L595 18L18 18z" /></clipPath><clipPath id="8"><path id="" clip-rule="evenodd" transform="matrix(1 0 0 1 0 0)" d="M0 842L595 842L595 842L595 0L595 0L0 0z" /></clipPath><clipPath id="9"><path id="" clip-rule="evenodd" transform="matrix(1 0 0 1 0 0)" d="M18 842L595 842L595 842L595 18L595 18L18 18z" /></clipPath><clipPath id="10"><path id="" clip-rule="evenodd" transform="matrix(1 0 0 1 0 0)" d="M0 842L595 842L595 842L595 0L595 0L0 0z" /></clipPath><clipPath id="11"><path id="" clip-rule="evenodd" transform="matrix(1 0 0 1 0 0)" d="M18 842L595 842L595 842L595 18L595 18L18 18z" /></clipPath><clipPath id="12"><path id="" clip-rule="evenodd" transform="matrix(1 0 0 1 0 0)" d="M18 842L595 842L595 842L595 18L595 18L18 18z" /></clipPath><clipPath id="13"><path id="" clip-rule="evenodd" transform="matrix(1 0 0 1 0 0)" d="M0 842L595 842L595 842L595 0L595 0L0 0z" /></clipPath><clipPath id="14"><path id="" clip-rule="evenodd" transform="matrix(1 0 0 1 0 0)" d="M18 842L595 842L595 842L595 18L595 18L18 18z" /></clipPath><clipPath id="15"><path id="" clip-rule="evenodd" transform="matrix(1 0 0 1 0 0)" d="M18 842L595 842L595 842L595 18L595 18L18 18z" /></clipPath><clipPath id="16"><path id="" clip-rule="evenodd" transform="matrix(1 0 0 1 0 0)" d="M0 842L595 842L595 842L595 0L595 0L0 0z" /></clipPath><clipPath id="17"><path id="" clip-rule="evenodd" transform="matrix(1 0 0 1 0 0)" d="M18 842L595 842L595 842L595 18L595 18L18 18z" /></clipPath><clipPath id="18"><path id="" clip-rule="evenodd" transform="matrix(1 0 0 1 0 0)" d="M18 842L595 842L595 842L595 18L595 18L18 18z" /></clipPath><clipPath id="19"><path id="" clip-rule="evenodd" transform="matrix(1 0 0 1 0 0)" d="M0 842L595 842L595 842L595 0L595 0L0 0z" /></clipPath><clipPath id="20"><path id="" clip-rule="evenodd" transform="matrix(1 0 0 1 0 0)" d="M18 842L595 842L595 842L595 18L595 18L18 18z" /></clipPath><clipPath id="21"><path id="" clip-rule="evenodd" transform="matrix(1 0 0 1 0 0)" d="M18 842L595 842L595 842L595 18L595 18L18 18z" /></clipPath><clipPath id="22"><path id="" clip-rule="evenodd" transform="matrix(1 0 0 1 0 0)" d="M0 842L595 842L595 842L595 0L595 0L0 0z" /></clipPath></defs><g transform="matrix(1.333333 0 0 1.333333 0 0)"><g clip-path="url(#1)"><g clip-path="url(#2)"><path id="174" transform="matrix(1 0 0 -1 0 842)" d="M54 708.08L540.96 708.08L540.96 722.72L54 722.72z" stroke="none" fill="#D3D3D3" fill-rule="nonzero" /></g><g clip-path="url(#3)"></g><g clip-path="url(#4)"></g><g clip-path="url(#5)"><path id="780" transform="matrix(1 0 0 -1 0 842)" d="M54 567.68L540.96 567.68L540.96 582.32L54 582.32z" stroke="none" fill="#D2D2D2" fill-rule="nonzero" /></g><g clip-path="url(#6)"></g><g clip-path="url(#7)"></g><g clip-path="url(#8)"><path id="1287" transform="matrix(1 0 0 -1 0 842)" d="M54 427.28L540.96 427.28L540.96 441.92L54 441.92z" stroke="none" fill="#D2D2D2" fill-rule="nonzero" /></g><g clip-path="url(#9)"></g><g clip-path="url(#10)"><path id="1468" transform="matrix(1 0 0 -1 0 842)" d="M109.44 364.64L540.96 364.64L540.96 379.76L109.44 379.76z" stroke="none" fill="#FFFF00" fill-rule="nonzero" /><path id="1560" transform="matrix(1 0 0 -1 0 842)" d="M75.12 350L540.96 350L540.96 362.96L75.12 362.96z" stroke="none" fill="#FEFF00" fill-rule="nonzero" /><path id="1658" transform="matrix(1 0 0 -1 0 842)" d="M75.12 334.4L540.96 334.4L540.96 347.36L75.12 347.36z" stroke="none" fill="#FEFF00" fill-rule="nonzero" /><path id="1751" transform="matrix(1 0 0 -1 0 842)" d="M75.12 318.8L379.44 318.8L379.44 331.76L75.12 331.76z" stroke="none" fill="#FEFF00" fill-rule="nonzero" /><path id="1866" transform="matrix(1 0 0 -1 0 842)" d="M108.96 271.04L540.96 271.04L540.96 286.16L108.96 286.16z" stroke="none" fill="#FEFF00" fill-rule="nonzero" /><path id="1964" transform="matrix(1 0 0 -1 0 842)" d="M75.12 256.4L540.96 256.4L540.96 269.36L75.12 269.36z" stroke="none" fill="#FEFF00" fill-rule="nonzero" /><path id="2054" transform="matrix(1 0 0 -1 0 842)" d="M75.12 240.8L364.08 240.8L364.08 253.76L75.12 253.76z" stroke="none" fill="#FEFF00" fill-rule="nonzero" /><path id="2116" transform="matrix(1 0 0 -1 0 842)" d="M54 224.48L540.96 224.48L540.96 239.12L54 239.12z" stroke="none" fill="#D2D2D2" fill-rule="nonzero" /></g><g clip-path="url(#11)"></g><g clip-path="url(#12)"></g><g clip-path="url(#13)"><path id="2233" transform="matrix(1 0 0 -1 0 842)" d="M54 177.68L540.96 177.68L540.96 192.32L54 192.32z" stroke="none" fill="#D2D2D2" fill-rule="nonzero" /></g><g clip-path="url(#14)"></g><g clip-path="url(#15)"></g><g clip-path="url(#16)"></g><g clip-path="url(#17)"></g><g clip-path="url(#18)"></g><g clip-path="url(#19)"></g><g clip-path="url(#20)"></g><g clip-path="url(#21)"></g><g clip-path="url(#22)"><path id="2537" transform="matrix(1 0 0 -1 0 842)" d="M149.76 115.04L540.96 115.04L540.96 130.16L149.76 130.16z" stroke="none" fill="#FEFF00" fill-rule="nonzero" /><path id="2634" transform="matrix(1 0 0 -1 0 842)" d="M75.12 100.4L540.48 100.4L540.48 113.36L75.12 113.36z" stroke="none" fill="#FEFF00" fill-rule="nonzero" /><path id="2734" transform="matrix(1 0 0 -1 0 842)" d="M54 83.84002L75.12 83.84002L75.12 98.96002L54 98.96002z" stroke="none" fill="#FEFF00" fill-rule="nonzero" /><path id="2735" transform="matrix(1 0 0 -1 0 842)" d="M208.08 83.84002L315.12 83.84002L315.12 98.96002L208.08 98.96002z" stroke="none" fill="#FEFF00" fill-rule="nonzero" /></g></g></g></svg>